<svg xmlns="http://www.w3.org/2000/svg" width="40" height="40" fill="none"><path fill-rule="evenodd" clip-rule="evenodd" d="M11.333 34.667h17.334V5.333H11.333v29.334Z" fill="#fff"/><path fill-rule="evenodd" clip-rule="evenodd" d="M12.667 30h14.666V10H12.667v20Z" fill="#CFE6F0"/><path fill-rule="evenodd" clip-rule="evenodd" d="M12 5.333a.667.667 0 0 0-.667.667v28c0 .368.299.667.667.667h16a.667.667 0 0 0 .667-.667V6A.667.667 0 0 0 28 5.333H12ZM28 36H12c-1.103 0-2-.897-2-2V6c0-1.103.897-2 2-2h16c1.103 0 2 .897 2 2v28c0 1.103-.897 2-2 2Z" fill="#4F5661"/><path fill-rule="evenodd" clip-rule="evenodd" d="M27.333 10.667H12.667a.666.666 0 1 1 0-1.334h14.666a.666.666 0 1 1 0 1.334Zm0 20H12.667a.666.666 0 1 1 0-1.334h14.666a.666.666 0 1 1 0 1.334Zm-6 2.666h-2.666a.666.666 0 1 1 0-1.333h2.666a.666.666 0 1 1 0 1.333ZM20 8.333a1.001 1.001 0 0 1 0-2 1.001 1.001 0 0 1 0 2Z" fill="#4F5661"/></svg>