<svg xmlns="http://www.w3.org/2000/svg" width="40" height="40" fill="none"><g clip-path="url(#a)"><path d="M6 15.25h27.5V32H6V15.25Z" fill="#fff"/><circle cx="19.5" cy="15" fill="#fff" r="5.5"/><path fill-rule="evenodd" clip-rule="evenodd" d="M20.895 15.454c-.165 1.009-1.02 1.712-1.906 1.566-.886-.145-1.474-1.082-1.31-2.09.082-.5.332-.937.706-1.234.29-.23.626-.35.967-.35.078 0 .156.006.234.018.418.069.785.316 1.032.697.26.4.358.894.277 1.393Zm-.14-6.328c-2.017-.402-4.016.168-5.483 1.568-1.465 1.398-2.13 3.36-1.825 5.382a6.114 6.114 0 0 0 6.062 5.175 6.06 6.06 0 0 0 3.167-.888l-.648-1.068a4.86 4.86 0 0 1-3.209.659 4.856 4.856 0 0 1-4.136-4.064c-.244-1.614.285-3.179 1.452-4.292 1.167-1.114 2.763-1.569 4.376-1.247 2.084.416 3.89 2.67 3.864 4.822-.01.771-.25 1.34-.66 1.563-.354.191-.831.128-1.308-.175-.148-.095-.228-.27-.21-.406l.665-3.15-1.223-.259-.097.462a2.736 2.736 0 0 0-1.755-1.077 2.757 2.757 0 0 0-2.179.586 3.208 3.208 0 0 0-1.162 2.012c-.275 1.688.775 3.269 2.342 3.525.145.023.29.035.432.035.822 0 1.587-.386 2.135-1.008.109.128.236.241.38.334.858.546 1.82.629 2.576.22.482-.261 1.294-.952 1.314-2.647.033-2.753-2.197-5.53-4.87-6.062Z" fill="#53C27C"/><path fill-rule="evenodd" clip-rule="evenodd" d="m6.5 19.125 11.5 7-11.631-9.53.131 2.53Zm26.864 0-11.93 7 12.066-9.53-.136 2.53Z" fill="#CFE6F0"/><path fill-rule="evenodd" clip-rule="evenodd" d="M32.518 31.625H6.982a.491.491 0 0 1-.482-.5V17.323l11.339 8.652a3.141 3.141 0 0 0 1.911.655c.67 0 1.34-.218 1.912-.655L33 17.323v13.802c0 .276-.216.5-.482.5Zm0-17h-5.333a.5.5 0 1 0 0 1h5.333c.248 0 .446.198.472.448L21.055 25.18a2.128 2.128 0 0 1-2.61 0L6.51 16.073a.485.485 0 0 1 .472-.448H12a.5.5 0 1 0 0-1H6.982c-.817 0-1.482.673-1.482 1.5v15c0 .827.665 1.5 1.482 1.5h25.536c.817 0 1.482-.673 1.482-1.5v-15c0-.827-.665-1.5-1.482-1.5Z" fill="#4F5661"/><path fill-rule="evenodd" clip-rule="evenodd" d="M7.964 30.625a.501.501 0 0 1-.357-.85l5.402-5.5a.5.5 0 0 1 .714.7l-5.402 5.5a.5.5 0 0 1-.357.15Zm23.572 0a.5.5 0 0 1-.357-.15l-5.402-5.5a.501.501 0 0 1 .714-.7l5.402 5.5a.5.5 0 0 1-.357.85Z" fill="#4F5661"/></g><defs><clipPath id="a"><path fill="#fff" d="M0 0h40v40H0z"/></clipPath></defs></svg>