<svg xmlns="http://www.w3.org/2000/svg" width="18" height="18" fill="none"><path d="M9 18A9 9 0 1 0 9 0a9 9 0 0 0 0 18Z" fill="#FFE01B"/><path d="M11.688 8.777a.98.98 0 0 1 .263 0c.047-.107.056-.294.013-.497-.062-.301-.148-.483-.323-.455-.175.029-.182.246-.12.548.036.168.098.315.169.404h-.002Zm-1.51.24c.126.055.204.09.234.06.02-.02.014-.057-.017-.107a.758.758 0 0 0-.325-.263.89.89 0 0 0-.863.102c-.084.063-.165.147-.153.2.003.016.017.028.045.033.07.008.312-.115.592-.131.197-.012.36.048.487.104v.002Zm-.255.143a.596.596 0 0 0-.313.13c-.049.044-.08.09-.08.125a.04.04 0 0 0 .013.03c.008.007.016.01.027.01.037 0 .12-.034.12-.034a1.06 1.06 0 0 1 .527-.055c.082.01.121.015.14-.014.005-.008.011-.025-.005-.052-.04-.062-.204-.167-.43-.142l.001.002Zm1.254.53c.112.057.235.035.275-.048.04-.08-.018-.19-.13-.246-.11-.056-.234-.034-.274.049-.04.08.018.192.13.246Zm.717-.624c-.091-.002-.165.097-.167.222-.002.123.069.226.16.228.09.001.165-.098.167-.223.002-.123-.07-.226-.16-.227Zm-6.078 2.238c-.022-.029-.059-.02-.096-.012a.326.326 0 0 1-.084.012.183.183 0 0 1-.155-.078c-.04-.064-.039-.158.006-.266l.022-.049c.073-.163.194-.436.058-.694a.614.614 0 0 0-.472-.342.608.608 0 0 0-.52.187c-.2.22-.23.52-.193.627.013.038.037.049.052.052.034.005.084-.02.116-.105a.833.833 0 0 1 .091-.223.363.363 0 0 1 .504-.104c.14.091.194.263.135.429a1.03 1.03 0 0 0-.07.38c.021.27.188.378.336.39.145.005.247-.076.272-.135.015-.035.002-.057-.007-.066l.005-.003Z" fill="#000"/><path d="M14.177 10.81a11.84 11.84 0 0 0-.09-.308c-.05-.159-.102-.27-.102-.27a.994.994 0 0 0 .176-.711.912.912 0 0 0-.262-.51c-.156-.163-.475-.331-.923-.458l-.236-.065c0-.01-.012-.555-.022-.79a2.662 2.662 0 0 0-.105-.694c-.097-.352-.268-.66-.48-.857.587-.609.952-1.278.952-1.853-.001-1.104-1.358-1.44-3.032-.746-.002 0-.352.148-.354.15-.001-.002-.64-.629-.65-.637-1.908-1.662-7.87 4.965-5.963 6.573l.416.352c-.108.28-.15.6-.116.945.045.444.273.868.644 1.195.352.312.814.51 1.262.51.742 1.708 2.437 2.757 4.422 2.816 2.133.064 3.92-.938 4.67-2.734.05-.127.258-.694.258-1.197 0-.502-.284-.713-.466-.713l.001.002Zm-8.72 1.345a.97.97 0 0 1-.197.013c-.644-.016-1.338-.596-1.407-1.284-.076-.76.311-1.345 1-1.483.082-.017.181-.027.287-.02.385.02.953.317 1.082 1.156.115.743-.067 1.5-.763 1.618h-.002Zm-.72-3.207a1.63 1.63 0 0 0-1.034.66c-.139-.114-.395-.337-.44-.424-.37-.7.4-2.058.94-2.827 1.33-1.898 3.411-3.334 4.375-3.072.157.044.676.645.676.645s-.964.534-1.857 1.28c-1.203.926-2.113 2.273-2.658 3.734l-.002.004Zm6.757 2.925a.036.036 0 0 0 .022-.037.036.036 0 0 0-.039-.032s-1.008.15-1.961-.199c.104-.337.379-.215.797-.181a5.839 5.839 0 0 0 1.923-.208c.431-.123.998-.367 1.437-.714.149.325.201.685.201.685s.115-.02.21.04c.092.055.157.171.112.471a2.607 2.607 0 0 1-.732 1.434c-.244.263-.539.49-.878.658-.18.094-.37.177-.573.243-1.51.493-3.055-.05-3.554-1.214a1.838 1.838 0 0 1-.1-.275c-.212-.767-.032-1.689.531-2.267.036-.037.071-.08.071-.134a.236.236 0 0 0-.054-.129c-.197-.286-.88-.773-.743-1.715.098-.678.69-1.155 1.244-1.126l.14.008c.239.014.448.046.645.054.33.014.627-.033.978-.327.118-.1.214-.183.374-.212.017-.003.059-.019.143-.014a.48.48 0 0 1 .241.078c.281.187.322.64.335.972.009.19.03.65.04.78.018.3.097.343.255.395.09.03.174.052.297.086.373.105.593.21.733.347a.463.463 0 0 1 .133.262c.044.32-.25.716-1.024 1.076-.848.393-1.876.493-2.588.415a28.968 28.968 0 0 0-.249-.028c-.568-.076-.893.657-.551 1.16.22.324.82.535 1.417.537 1.374 0 2.429-.587 2.822-1.092l.032-.046c.018-.029.003-.046-.02-.029-.32.22-1.746 1.09-3.27.83 0 0-.186-.03-.354-.097-.135-.052-.415-.181-.45-.47 1.23.381 2.005.02 2.005.02l.002-.005Zm-4.3-5.523c.471-.546 1.052-1.02 1.575-1.287.018-.009.037.01.027.028-.04.076-.121.236-.147.358-.003.018.017.033.032.022.324-.221.889-.457 1.384-.49.022 0 .032.028.015.04a1.205 1.205 0 0 0-.217.217c-.01.014 0 .034.017.034.347.001.837.123 1.156.303.022.012.007.054-.019.049a4.695 4.695 0 0 0-2.095.005c-.733.179-1.292.455-1.7.752-.02.015-.046-.014-.029-.032v.001Z" fill="#000"/></svg>